<svg width="1797" height="521" viewBox="0 0 1797 521" fill="none" xmlns="http://www.w3.org/2000/svg">
<path d="M1773.92 23.2783L621.769 23.2784M1773.24 24.0485L1773.24 498.495M1773.92 497.725H621.769M622.451 498.495V387.585M622.451 134.958V24.0485" stroke="#0046CC" stroke-width="46"/>
<rect width="48.1736" height="26.5979" transform="matrix(-1 0 0 1 1796 491.402)" fill="#0046CC"/>
<rect width="48.1736" height="26.5979" transform="matrix(-1 0 0 1 1796 2)" fill="#0046CC"/>
<rect width="48.1736" height="26.5979" transform="matrix(-1 0 0 1 647.863 2)" fill="#0046CC"/>
<rect width="48.1736" height="26.5979" transform="matrix(-1 0 0 1 647.863 491.402)" fill="#0046CC"/>
<path d="M23.5513 209.18L59.998 296.394L96.5806 209.18H107.711V308H99.3633V264.97L100.042 220.854L63.2559 308H56.8081L20.1577 221.193L20.8364 264.698V308H12.4883V209.18H23.5513ZM187.324 260.626H141.104V300.941H194.247V308H132.756V209.18H193.908V216.306H141.104V253.567H187.324V260.626ZM267.819 283.702C267.819 278.227 265.896 273.906 262.05 270.739C258.204 267.526 251.168 264.495 240.942 261.644C230.716 258.748 223.251 255.604 218.545 252.21C211.848 247.414 208.5 241.124 208.5 233.342C208.5 225.785 211.599 219.654 217.798 214.949C224.042 210.198 232.006 207.822 241.689 207.822C248.25 207.822 254.109 209.089 259.268 211.623C264.471 214.157 268.498 217.686 271.349 222.211C274.199 226.736 275.625 231.781 275.625 237.346H267.208C267.208 230.604 264.901 225.197 260.286 221.125C255.67 217.007 249.472 214.949 241.689 214.949C234.133 214.949 228.115 216.646 223.635 220.039C219.156 223.387 216.916 227.776 216.916 233.206C216.916 238.229 218.93 242.323 222.957 245.491C226.984 248.658 233.431 251.463 242.3 253.907C251.168 256.305 257.888 258.816 262.458 261.44C267.028 264.02 270.466 267.119 272.774 270.739C275.082 274.359 276.235 278.634 276.235 283.566C276.235 291.349 273.113 297.593 266.869 302.299C260.67 307.005 252.48 309.357 242.3 309.357C235.332 309.357 228.929 308.113 223.092 305.625C217.301 303.136 212.889 299.652 209.857 295.172C206.871 290.693 205.378 285.557 205.378 279.766H213.726C213.726 286.734 216.328 292.231 221.531 296.258C226.735 300.285 233.658 302.299 242.3 302.299C249.992 302.299 256.168 300.602 260.829 297.208C265.489 293.815 267.819 289.313 267.819 283.702ZM350.215 283.702C350.215 278.227 348.292 273.906 344.446 270.739C340.6 267.526 333.564 264.495 323.338 261.644C313.112 258.748 305.646 255.604 300.94 252.21C294.244 247.414 290.896 241.124 290.896 233.342C290.896 225.785 293.995 219.654 300.194 214.949C306.438 210.198 314.402 207.822 324.084 207.822C330.645 207.822 336.505 209.089 341.663 211.623C346.867 214.157 350.894 217.686 353.744 222.211C356.595 226.736 358.02 231.781 358.02 237.346H349.604C349.604 230.604 347.296 225.197 342.681 221.125C338.066 217.007 331.867 214.949 324.084 214.949C316.528 214.949 310.51 216.646 306.031 220.039C301.551 223.387 299.312 227.776 299.312 233.206C299.312 238.229 301.325 242.323 305.352 245.491C309.379 248.658 315.827 251.463 324.695 253.907C333.564 256.305 340.283 258.816 344.853 261.44C349.423 264.02 352.862 267.119 355.169 270.739C357.477 274.359 358.631 278.634 358.631 283.566C358.631 291.349 355.509 297.593 349.265 302.299C343.066 307.005 334.876 309.357 324.695 309.357C317.727 309.357 311.325 308.113 305.488 305.625C299.696 303.136 295.285 299.652 292.253 295.172C289.267 290.693 287.773 285.557 287.773 279.766H296.122C296.122 286.734 298.723 292.231 303.927 296.258C309.13 300.285 316.053 302.299 324.695 302.299C332.387 302.299 338.564 300.602 343.224 297.208C347.885 293.815 350.215 289.313 350.215 283.702ZM430.031 280.309H385.168L374.988 308H366.232L403.629 209.18H411.57L448.967 308H440.28L430.031 280.309ZM387.748 273.182H427.384L407.566 219.36L387.748 273.182ZM534.078 296.258C531.182 300.376 526.634 303.588 520.436 305.896C514.282 308.204 507.382 309.357 499.735 309.357C491.998 309.357 485.12 307.502 479.102 303.792C473.084 300.082 468.424 294.833 465.121 288.046C461.818 281.259 460.143 273.476 460.098 264.698V252.21C460.098 238.5 463.56 227.686 470.482 219.768C477.405 211.804 486.704 207.822 498.377 207.822C508.558 207.822 516.748 210.424 522.947 215.627C529.146 220.786 532.833 227.912 534.01 237.007H525.662C524.44 229.767 521.476 224.292 516.771 220.582C512.11 216.826 506.002 214.949 498.445 214.949C489.215 214.949 481.907 218.229 476.523 224.79C471.139 231.351 468.446 240.604 468.446 252.549V264.223C468.446 271.734 469.713 278.386 472.247 284.177C474.826 289.924 478.491 294.381 483.242 297.548C488.038 300.715 493.536 302.299 499.735 302.299C506.929 302.299 513.105 301.168 518.264 298.905C521.612 297.412 524.101 295.67 525.729 293.679V268.16H499.192V261.101H534.078V296.258ZM612.333 260.626H566.113V300.941H619.256V308H557.765V209.18H618.917V216.306H566.113V253.567H612.333V260.626ZM692.828 283.702C692.828 278.227 690.905 273.906 687.059 270.739C683.213 267.526 676.177 264.495 665.951 261.644C655.725 258.748 648.259 255.604 643.554 252.21C636.857 247.414 633.509 241.124 633.509 233.342C633.509 225.785 636.608 219.654 642.807 214.949C649.051 210.198 657.015 207.822 666.698 207.822C673.259 207.822 679.118 209.089 684.276 211.623C689.48 214.157 693.507 217.686 696.357 222.211C699.208 226.736 700.633 231.781 700.633 237.346H692.217C692.217 230.604 689.91 225.197 685.294 221.125C680.679 217.007 674.48 214.949 666.698 214.949C659.141 214.949 653.124 216.646 648.644 220.039C644.165 223.387 641.925 227.776 641.925 233.206C641.925 238.229 643.938 242.323 647.965 245.491C651.992 248.658 658.44 251.463 667.309 253.907C676.177 256.305 682.896 258.816 687.466 261.44C692.036 264.02 695.475 267.119 697.783 270.739C700.09 274.359 701.244 278.634 701.244 283.566C701.244 291.349 698.122 297.593 691.878 302.299C685.679 307.005 677.489 309.357 667.309 309.357C660.34 309.357 653.938 308.113 648.101 305.625C642.309 303.136 637.898 299.652 634.866 295.172C631.88 290.693 630.387 285.557 630.387 279.766H638.735C638.735 286.734 641.337 292.231 646.54 296.258C651.743 300.285 658.666 302.299 667.309 302.299C675.001 302.299 681.177 300.602 685.837 297.208C690.498 293.815 692.828 289.313 692.828 283.702Z" fill="#0046CC"/>
<path d="M842.031 334V174.75H899.234C919.724 174.75 935.292 178.505 945.938 186.016C956.656 193.526 962.016 204.427 962.016 218.719C962.016 226.958 960.12 233.995 956.328 239.828C952.536 245.661 946.958 249.964 939.594 252.734C947.906 254.922 954.286 259.005 958.734 264.984C963.182 270.964 965.406 278.255 965.406 286.859C965.406 302.464 960.448 314.203 950.531 322.078C940.688 329.88 926.068 333.854 906.672 334H842.031ZM880.422 266.297V304.469H905.578C912.505 304.469 917.828 302.901 921.547 299.766C925.266 296.557 927.125 292.073 927.125 286.312C927.125 273.042 920.526 266.37 907.328 266.297H880.422ZM880.422 241.141H900.438C908.823 241.068 914.802 239.536 918.375 236.547C921.948 233.557 923.734 229.146 923.734 223.312C923.734 216.604 921.802 211.792 917.938 208.875C914.073 205.885 907.839 204.391 899.234 204.391H880.422V241.141ZM1121.48 257.656C1121.48 273.188 1118.6 286.932 1112.84 298.891C1107.08 310.849 1098.88 320.073 1088.23 326.562C1077.66 332.979 1065.59 336.188 1052.03 336.188C1038.47 336.188 1026.44 333.089 1015.94 326.891C1005.44 320.62 997.234 311.688 991.328 300.094C985.495 288.5 982.432 275.193 982.141 260.172V251.203C982.141 235.599 984.984 221.854 990.672 209.969C996.432 198.01 1004.64 188.786 1015.28 182.297C1026 175.807 1038.18 172.562 1051.81 172.562C1065.3 172.562 1077.33 175.771 1087.91 182.188C1098.48 188.604 1106.68 197.755 1112.52 209.641C1118.42 221.453 1121.41 235.016 1121.48 250.328V257.656ZM1082.44 250.984C1082.44 235.161 1079.78 223.167 1074.45 215C1069.2 206.76 1061.66 202.641 1051.81 202.641C1032.56 202.641 1022.39 217.078 1021.3 245.953L1021.19 257.656C1021.19 273.26 1023.78 285.255 1028.95 293.641C1034.13 302.026 1041.82 306.219 1052.03 306.219C1061.73 306.219 1069.2 302.099 1074.45 293.859C1079.7 285.62 1082.36 273.771 1082.44 258.312V250.984ZM1229.33 304.25H1176.72L1167.53 334H1126.52L1184.92 174.75H1221.02L1279.86 334H1238.62L1229.33 304.25ZM1185.91 274.609H1220.14L1202.97 219.375L1185.91 274.609ZM1350.73 277.781H1329.95V334H1291.56V174.75H1354.23C1373.12 174.75 1387.89 178.943 1398.53 187.328C1409.18 195.714 1414.5 207.562 1414.5 222.875C1414.5 233.958 1412.24 243.146 1407.72 250.438C1403.27 257.729 1396.27 263.635 1386.72 268.156L1419.97 332.359V334H1378.84L1350.73 277.781ZM1329.95 248.141H1354.23C1361.53 248.141 1366.99 246.245 1370.64 242.453C1374.36 238.589 1376.22 233.229 1376.22 226.375C1376.22 219.521 1374.36 214.161 1370.64 210.297C1366.92 206.359 1361.45 204.391 1354.23 204.391H1329.95V248.141ZM1437.69 334V174.75H1488.98C1503.06 174.75 1515.71 177.958 1526.94 184.375C1538.17 190.719 1546.92 199.724 1553.19 211.391C1559.53 222.984 1562.74 236 1562.81 250.438V257.766C1562.81 272.349 1559.71 285.438 1553.52 297.031C1547.39 308.552 1538.71 317.594 1527.48 324.156C1516.33 330.646 1503.86 333.927 1490.08 334H1437.69ZM1476.08 204.391V304.469H1489.42C1500.43 304.469 1508.89 300.568 1514.8 292.766C1520.7 284.891 1523.66 273.224 1523.66 257.766V250.875C1523.66 235.49 1520.7 223.896 1514.8 216.094C1508.89 208.292 1500.29 204.391 1488.98 204.391H1476.08Z" fill="#0046CC"/>
</svg>
